<mxfile host="app.diagrams.net" modified="2024-03-13T20:39:35.385Z" agent="Mozilla/5.0 (Windows NT 10.0; Win64; x64) AppleWebKit/537.36 (KHTML, like Gecko) Chrome/122.0.0.0 Safari/537.36" etag="WaUcqTh7UxBQT7GAsJwK" version="24.0.5" type="github">
  <diagram name="Page-1" id="3FahlCcISmpW_KnGQygM">
    <mxGraphModel dx="1434" dy="738" grid="1" gridSize="10" guides="1" tooltips="1" connect="1" arrows="1" fold="1" page="1" pageScale="1" pageWidth="850" pageHeight="1100" math="0" shadow="0">
      <root>
        <mxCell id="0" />
        <mxCell id="1" parent="0" />
        <mxCell id="0uppAoZkeoiL5u4qMpaQ-1" value="&lt;font color=&quot;#ffffff&quot;&gt;Workday&lt;/font&gt;&lt;div&gt;&lt;font color=&quot;#ffffff&quot;&gt;HCM &amp;amp; FINANCE&lt;/font&gt;&lt;/div&gt;" style="shape=cylinder3;whiteSpace=wrap;html=1;boundedLbl=1;backgroundOutline=1;size=15;fillColor=#fa6800;fontColor=#000000;strokeColor=#E6E6E6;" vertex="1" parent="1">
          <mxGeometry x="150" y="230" width="130" height="120" as="geometry" />
        </mxCell>
      </root>
    </mxGraphModel>
  </diagram>
</mxfile>
